<svg xmlns="http://www.w3.org/2000/svg" xml:space="preserve" width="166.525" height="165.426" viewBox="0 0 44.06 43.769"><g transform="translate(-63.975 -94.03)"><path d="M68.392 124.802c-1.392.026-1.867 3.735-1.867 3.735 10.702 16.275 39.408 0 38.954-17.578-.343-13.242-7.479-5.715-6.988-14.38h-4.904c4.647 5.446 2.179 5.715.969 9.041-3.443 9.468-5.113 18.796-26.164 19.182" style="font-variation-settings:normal;fill:#f9d841;fill-opacity:1;stroke:#333;stroke-width:5.10011;stroke-linecap:round;stroke-linejoin:round;stroke-miterlimit:4;stroke-dasharray:none;stroke-dashoffset:0;stroke-opacity:1;paint-order:stroke fill markers;stop-color:#000;stop-opacity:1"/><path d="M104.124 104.323c.007.173.018.333.022.512.39 15.06-15.322 33.67-37.621 23.702 12.52 17.465 39.599-1.63 38.953-17.578-.133-3.301-.612-5.307-1.355-6.636" style="font-variation-settings:normal;fill:#faac28;fill-opacity:1;stroke:none;stroke-width:5.10011;stroke-linecap:round;stroke-linejoin:round;stroke-miterlimit:4;stroke-dasharray:none;stroke-dashoffset:0;stroke-opacity:1;paint-order:stroke fill markers;stop-color:#000;stop-opacity:1"/><path d="M95.29 114.507c-1.62 4.31-6.56 9.3-12.307 10.668" style="font-variation-settings:normal;fill:none;fill-opacity:1;stroke:#fff;stroke-width:2.55005;stroke-linecap:round;stroke-linejoin:round;stroke-miterlimit:4;stroke-dasharray:none;stroke-dashoffset:0;stroke-opacity:.700865;paint-order:stroke fill markers"/><ellipse cx="138.964" cy="47.957" rx="1.234" ry="1.232" style="fill:#fff;fill-opacity:.70581;stroke-width:5.1;stroke-linecap:round;paint-order:stroke fill markers" transform="rotate(30)"/></g></svg>