<svg xmlns="http://www.w3.org/2000/svg" xmlns:xlink="http://www.w3.org/1999/xlink" xml:space="preserve" width="98.92" height="165.846" viewBox="0 0 26.173 43.88"><defs><linearGradient xlink:href="#a" id="b" x1="546.652" x2="621.429" y1="257.461" y2="257.877" gradientUnits="userSpaceOnUse"/><linearGradient id="a"><stop offset="0" style="stop-color:#3bb878;stop-opacity:1"/><stop offset=".523" style="stop-color:#3bb878;stop-opacity:1"/><stop offset=".523" style="stop-color:#249958;stop-opacity:1"/><stop offset="1" style="stop-color:#249958;stop-opacity:1"/></linearGradient></defs><g transform="translate(-326.988 -95.53)"><path d="M345.91 132.243c-2.506 4.341-7.924 5.905-12.102 3.494-4.177-2.412-5.532-7.887-3.025-12.228s6.8-3.96 10.978-1.547c4.178 2.412 6.656 5.94 4.15 10.28z" style="font-variation-settings:normal;vector-effect:none;fill:#bc3b5b;fill-opacity:1;stroke:#333;stroke-width:5.1;stroke-linecap:round;stroke-linejoin:miter;stroke-miterlimit:4;stroke-dasharray:none;stroke-dashoffset:0;stroke-opacity:1;-inkscape-stroke:none;paint-order:stroke fill markers;stop-color:#000;stop-opacity:1"/><path d="M346.089 125.906c-2.056 8.65-11.472 10.242-16.27 4.55.566 2.168 1.935 4.095 3.99 5.28 4.177 2.412 9.595.848 12.101-3.493 1.37-2.372 1.25-4.5.179-6.337" style="font-variation-settings:normal;vector-effect:none;fill:#a3344f;fill-opacity:1;stroke:none;stroke-width:5.1;stroke-linecap:round;stroke-linejoin:miter;stroke-miterlimit:4;stroke-dasharray:none;stroke-dashoffset:0;stroke-opacity:1;-inkscape-stroke:none;paint-order:stroke fill markers;stop-color:#000;stop-opacity:1"/><path d="M585.807 218.49c-21.53 32.018-23.917 54.193 0 70.494 23.916-16.3 21.53-38.476 0-70.494z" style="fill:url(#b);fill-opacity:1;stroke:#333;stroke-width:28.1821;stroke-linecap:round;stroke-opacity:1;paint-order:stroke fill markers" transform="rotate(-45.001 294.629 -203.8)scale(.18622 .17586)"/><path d="M344.575 108.466c2.341 3.224 6.651-1.262 7.107-3.281" style="font-variation-settings:normal;fill:none;fill-opacity:1;stroke:#333;stroke-width:2.55005;stroke-linecap:round;stroke-linejoin:round;stroke-miterlimit:4;stroke-dasharray:none;stroke-dashoffset:0;stroke-opacity:1;paint-order:stroke fill markers"/><path d="M351.885 103.932c-.975 7.084-5.052 14.846-11.866 21.243" style="font-variation-settings:normal;fill:none;fill-opacity:1;stroke:#333;stroke-width:2.55005;stroke-linecap:round;stroke-linejoin:round;stroke-miterlimit:4;stroke-dasharray:none;stroke-dashoffset:0;stroke-opacity:1;paint-order:stroke fill markers"/><path d="M337.031 123.3c.016 2.133 4.16 4.625 5.976 3.45" style="font-variation-settings:normal;fill:none;fill-opacity:1;stroke:#333;stroke-width:2.55005;stroke-linecap:round;stroke-linejoin:round;stroke-miterlimit:4;stroke-dasharray:none;stroke-dashoffset:0;stroke-opacity:1;paint-order:stroke fill markers"/><ellipse cx="351.357" cy="-59.032" rx=".993" ry=".991" style="fill:#fff;fill-opacity:.70581;stroke-width:5.1;stroke-linecap:round;paint-order:stroke fill markers" transform="rotate(30)"/></g></svg>