<svg xmlns="http://www.w3.org/2000/svg" xmlns:xlink="http://www.w3.org/1999/xlink" xml:space="preserve" width="125.103" height="165.881" viewBox="0 0 33.1 43.889"><defs><linearGradient id="a"><stop offset="0" style="stop-color:#3bb878;stop-opacity:1"/><stop offset=".523" style="stop-color:#3bb878;stop-opacity:1"/><stop offset=".523" style="stop-color:#249958;stop-opacity:1"/><stop offset="1" style="stop-color:#249958;stop-opacity:1"/></linearGradient><linearGradient xlink:href="#a" id="b" x1="546.652" x2="621.429" y1="257.461" y2="257.877" gradientUnits="userSpaceOnUse"/></defs><g transform="translate(-163.69 -183.84)"><ellipse cx="180.239" cy="211.253" rx="14" ry="13.927" style="font-variation-settings:normal;vector-effect:none;fill:#f37d4a;fill-opacity:1;stroke:#333;stroke-width:5.1;stroke-linecap:round;stroke-linejoin:miter;stroke-miterlimit:4;stroke-dasharray:none;stroke-dashoffset:0;stroke-opacity:1;-inkscape-stroke:none;paint-order:stroke fill markers;stop-color:#000;stop-opacity:1"/><ellipse cx="180.239" cy="211.253" rx="14" ry="13.927" style="font-variation-settings:normal;vector-effect:none;fill:#f37d4a;fill-opacity:1;stroke:none;stroke-width:5.1;stroke-linecap:round;stroke-linejoin:miter;stroke-miterlimit:4;stroke-dasharray:none;stroke-dashoffset:0;stroke-opacity:1;-inkscape-stroke:none;paint-order:stroke fill markers;stop-color:#000;stop-opacity:1"/><path d="M193.576 207.027a19.44 19.338 0 0 1-18.658 13.917 19.44 19.338 0 0 1-5.408-.769 14 13.927 0 0 0 10.73 5.005 14 13.927 0 0 0 14-13.927 14 13.927 0 0 0-.664-4.226" style="font-variation-settings:normal;vector-effect:none;fill:#dd5c37;fill-opacity:1;stroke:none;stroke-width:5.1;stroke-linecap:round;stroke-linejoin:miter;stroke-miterlimit:4;stroke-dasharray:none;stroke-dashoffset:0;stroke-opacity:1;-inkscape-stroke:none;paint-order:stroke fill markers;stop-color:#000;stop-opacity:1"/><ellipse cx="175.743" cy="201.606" rx=".993" ry=".991" style="fill:#fff;fill-opacity:.70581;stroke-width:5.1;stroke-linecap:round;paint-order:stroke fill markers"/><path d="M585.807 218.49c-21.53 32.018-23.917 54.193 0 70.494 23.916-16.3 21.53-38.476 0-70.494z" style="fill:url(#b);fill-opacity:1;stroke:#333;stroke-width:28.1821;stroke-linecap:round;stroke-opacity:1;paint-order:stroke fill markers" transform="rotate(-45.001 321.74 32.248)scale(.18622 .17586)"/><path d="M188.767 192.54c-.996 3.336-3.726 7.693-6.1 10.512" style="font-variation-settings:normal;fill:#333;fill-opacity:1;stroke:#333;stroke-width:2.55005;stroke-linecap:round;stroke-linejoin:round;stroke-miterlimit:4;stroke-dasharray:none;stroke-dashoffset:0;stroke-opacity:1;paint-order:stroke fill markers"/><path d="M179.563 201.606c.293 1.926 4.69 3.89 6.434 2.567" style="font-variation-settings:normal;fill:none;fill-opacity:1;stroke:#333;stroke-width:2.55005;stroke-linecap:round;stroke-linejoin:round;stroke-miterlimit:4;stroke-dasharray:none;stroke-dashoffset:0;stroke-opacity:1;paint-order:stroke fill markers"/><path d="M173.075 203.895c-1.529 1.885-3.008 3.505-2.928 6.829" style="font-variation-settings:normal;fill:none;fill-opacity:1;stroke:#fff;stroke-width:2.55005;stroke-linecap:round;stroke-linejoin:round;stroke-miterlimit:4;stroke-dasharray:none;stroke-dashoffset:0;stroke-opacity:.700865;paint-order:stroke fill markers"/></g></svg>