<svg xmlns="http://www.w3.org/2000/svg" xmlns:xlink="http://www.w3.org/1999/xlink" xml:space="preserve" width="114.608" height="164.944" viewBox="0 0 30.323 43.641"><defs><linearGradient id="a"><stop offset="0" style="stop-color:#3bb878;stop-opacity:1"/><stop offset=".523" style="stop-color:#3bb878;stop-opacity:1"/><stop offset=".523" style="stop-color:#249958;stop-opacity:1"/><stop offset="1" style="stop-color:#249958;stop-opacity:1"/></linearGradient><linearGradient xlink:href="#a" id="b" x1="546.652" x2="621.429" y1="257.461" y2="257.877" gradientUnits="userSpaceOnUse"/></defs><g transform="translate(-251.16 -95.91)"><path d="M585.807 227.668c-20.244 16.846-24.07 24.56-24.99 38.031-1.204 17.61 13.862 31.648 24.99 23.4 11.127 8.248 26.193-5.79 24.99-23.4-.92-13.47-4.746-21.185-24.99-38.031z" style="fill:url(#b);fill-opacity:1;stroke:#333;stroke-width:28.1821;stroke-linecap:round;stroke-opacity:1;paint-order:stroke fill markers" transform="rotate(-45.001 257.463 -117.864)scale(.18622 .17586)"/><path d="M527.966 377.376c0 8.748-7.092 15.839-15.84 15.839-8.747 0-15.838-7.091-15.838-15.839 0-8.747 7.091-15.839 15.839-15.839 8.747 0 15.839 7.092 15.839 15.84zm-39.787 4.685c7.576 4.374 10.171 14.06 5.798 21.636-4.374 7.576-14.06 10.172-21.636 5.798s-10.172-14.06-5.798-21.636 14.06-10.171 21.636-5.798zm-15.835 36.799c7.575-4.374 17.262-1.778 21.636 5.797 4.373 7.576 1.778 17.263-5.798 21.636-7.575 4.374-17.262 1.779-21.636-5.797s-1.778-17.262 5.798-21.636zm23.95 32.113c0-8.747 7.092-15.838 15.84-15.838 8.747 0 15.838 7.09 15.838 15.838s-7.091 15.839-15.839 15.839c-8.747 0-15.839-7.091-15.839-15.839zm39.787-4.685c-7.576-4.374-10.171-14.06-5.798-21.636 4.374-7.576 14.06-10.171 21.636-5.797s10.172 14.06 5.798 21.636-14.06 10.17-21.636 5.797zm15.835-36.799c-7.575 4.374-17.262 1.778-21.636-5.797-4.373-7.576-1.778-17.262 5.798-21.636 7.575-4.374 17.262-1.778 21.636 5.797 4.373 7.576 1.778 17.263-5.798 21.636z" style="fill:#e44461;fill-opacity:1;stroke:#333;stroke-width:19.2756;stroke-linecap:round;stroke-opacity:1;paint-order:stroke fill markers" transform="matrix(.26458 0 0 .26458 130.821 13.49)"/><ellipse cx="264.944" cy="111.594" rx=".993" ry=".991" style="fill:#fff;fill-opacity:.70581;stroke-width:5.1;stroke-linecap:round;paint-order:stroke fill markers"/><path d="M269.577 110.7a5.58 5.58 0 0 1-5.498 4.675 5.6 5.6 0 0 1-1.526-.217 4.19 4.19 0 0 0 3.768 2.37 4.19 4.19 0 0 0 4.19-4.19 4.2 4.2 0 0 0-.934-2.639" style="fill:#bc3b5b;fill-opacity:1;stroke-width:5.1;stroke-linecap:round;paint-order:stroke fill markers"/><ellipse cx="273.378" cy="116.479" rx=".993" ry=".991" style="fill:#fff;fill-opacity:.70581;stroke-width:5.1;stroke-linecap:round;paint-order:stroke fill markers"/><path d="M278.01 115.585a5.58 5.58 0 0 1-5.497 4.675 5.6 5.6 0 0 1-1.526-.216 4.19 4.19 0 0 0 3.768 2.37 4.19 4.19 0 0 0 4.19-4.19 4.2 4.2 0 0 0-.934-2.64" style="fill:#bc3b5b;fill-opacity:1;stroke-width:5.1;stroke-linecap:round;paint-order:stroke fill markers"/><ellipse cx="273.378" cy="126.251" rx=".993" ry=".991" style="fill:#fff;fill-opacity:.70581;stroke-width:5.1;stroke-linecap:round;paint-order:stroke fill markers"/><path d="M278.01 125.356a5.58 5.58 0 0 1-5.497 4.676 5.6 5.6 0 0 1-1.526-.216 4.19 4.19 0 0 0 3.768 2.37 4.19 4.19 0 0 0 4.19-4.19 4.2 4.2 0 0 0-.934-2.64" style="fill:#bc3b5b;fill-opacity:1;stroke-width:5.1;stroke-linecap:round;paint-order:stroke fill markers"/><ellipse cx="256.51" cy="116.479" rx=".993" ry=".991" style="fill:#fff;fill-opacity:.70581;stroke-width:5.1;stroke-linecap:round;paint-order:stroke fill markers"/><path d="M261.143 115.585a5.58 5.58 0 0 1-5.498 4.675 5.6 5.6 0 0 1-1.526-.216 4.19 4.19 0 0 0 3.768 2.37 4.19 4.19 0 0 0 4.19-4.19 4.2 4.2 0 0 0-.934-2.64" style="fill:#bc3b5b;fill-opacity:1;stroke-width:5.1;stroke-linecap:round;paint-order:stroke fill markers"/><ellipse cx="256.51" cy="126.251" rx=".993" ry=".991" style="fill:#fff;fill-opacity:.70581;stroke-width:5.1;stroke-linecap:round;paint-order:stroke fill markers"/><path d="M261.143 125.356a5.58 5.58 0 0 1-5.498 4.676 5.6 5.6 0 0 1-1.526-.216 4.19 4.19 0 0 0 3.768 2.37 4.19 4.19 0 0 0 4.19-4.19 4.2 4.2 0 0 0-.934-2.64" style="fill:#bc3b5b;fill-opacity:1;stroke-width:5.1;stroke-linecap:round;paint-order:stroke fill markers"/><ellipse cx="264.944" cy="131.066" rx=".993" ry=".991" style="fill:#fff;fill-opacity:.70581;stroke-width:5.1;stroke-linecap:round;paint-order:stroke fill markers"/><path d="M269.577 130.172a5.58 5.58 0 0 1-5.498 4.675 5.6 5.6 0 0 1-1.526-.216 4.19 4.19 0 0 0 3.769 2.37 4.19 4.19 0 0 0 4.19-4.19 4.2 4.2 0 0 0-.935-2.64" style="fill:#bc3b5b;fill-opacity:1;stroke-width:5.1;stroke-linecap:round;paint-order:stroke fill markers"/><circle cx="266.321" cy="123.074" r="4.191" style="fill:#e44461;fill-opacity:1;stroke-width:5.1;stroke-linecap:round;paint-order:stroke fill markers"/><ellipse cx="264.944" cy="121.33" rx=".993" ry=".991" style="fill:#fff;fill-opacity:.70581;stroke-width:5.1;stroke-linecap:round;paint-order:stroke fill markers"/><path d="M269.577 120.435a5.58 5.58 0 0 1-5.498 4.676 5.6 5.6 0 0 1-1.526-.216 4.19 4.19 0 0 0 3.768 2.37 4.19 4.19 0 0 0 4.19-4.19 4.2 4.2 0 0 0-.934-2.64" style="fill:#bc3b5b;fill-opacity:1;stroke-width:5.1;stroke-linecap:round;paint-order:stroke fill markers"/><path d="M278.032 104.23c-2.817 1.606-3.927 4.573-6.219 8.355" style="font-variation-settings:normal;fill:#333;fill-opacity:1;stroke:#333;stroke-width:2.55005;stroke-linecap:round;stroke-linejoin:round;stroke-miterlimit:4;stroke-dasharray:none;stroke-dashoffset:0;stroke-opacity:1;paint-order:stroke fill markers"/></g></svg>